<?xml version="1.0" standalone="no"?>
<!DOCTYPE svg PUBLIC "-//W3C//DTD SVG 20010904//EN"
 "http://www.w3.org/TR/2001/REC-SVG-20010904/DTD/svg10.dtd">
<svg version="1.0" xmlns="http://www.w3.org/2000/svg"
 width="210.000000pt" height="240.000000pt" viewBox="0 0 210.000000 240.000000"
 preserveAspectRatio="xMidYMid meet">

<g transform="translate(0.000000,240.000000) scale(0.100000,-0.100000)"
fill="#000000" stroke="none">
<path d="M426 2356 c-14 -25 -35 -48 -46 -51 -11 -4 -18 -10 -15 -15 3 -5 1
-11 -5 -15 -6 -4 -8 -11 -4 -16 3 -5 10 -6 16 -3 12 8 10 -3 -15 -69 -7 -20
-16 -34 -20 -31 -3 3 -3 -4 0 -17 4 -12 2 -20 -3 -17 -5 4 -7 -13 -5 -39 4
-61 -9 -69 -133 -72 -55 -1 -112 -4 -126 -7 -14 -3 -35 -7 -47 -10 -19 -3 -23
-11 -23 -38 0 -32 3 -35 38 -40 20 -4 84 -4 141 -2 57 3 112 1 122 -4 10 -6
20 -27 24 -52 4 -23 16 -67 27 -97 11 -31 21 -78 23 -106 11 -152 15 -308 10
-325 -6 -18 -16 -20 -104 -20 -54 0 -139 -3 -189 -6 l-92 -7 0 -38 0 -39 83
-1 c45 -1 121 -2 169 -3 47 -1 90 -4 94 -8 4 -4 13 -3 20 3 8 7 14 7 19 -1 3
-5 1 -10 -4 -10 -6 0 -11 -7 -11 -15 0 -9 -11 -27 -25 -40 -19 -17 -24 -29
-20 -47 5 -19 -6 -38 -51 -94 -60 -73 -113 -175 -133 -258 -7 -27 -18 -64 -26
-83 -13 -31 -17 -33 -64 -33 l-51 0 0 -54 c0 -55 8 -66 50 -66 21 0 21 -6 -20
-208 -17 -88 -30 -183 -30 -227 l0 -75 269 0 268 0 7 39 c9 56 24 59 31 6 4
-25 13 -45 19 -45 9 0 9 17 2 68 -9 70 -3 127 14 117 6 -3 10 -46 10 -96 l0
-89 106 0 105 0 80 61 c45 33 86 58 92 56 7 -2 3 -9 -9 -15 -22 -12 -70 -55
-92 -84 -13 -16 2 -17 232 -18 l246 0 1 22 c1 22 1 22 9 -2 5 -14 8 64 9 185
l1 211 27 42 c15 23 32 43 38 45 18 8 317 -11 388 -23 37 -7 74 -19 82 -27 12
-11 15 -44 15 -149 0 -117 2 -134 16 -134 13 0 14 3 5 14 -9 11 -9 16 0 21 8
6 7 10 -2 16 -12 8 -11 11 1 19 12 8 13 12 1 19 -10 6 -11 13 -2 29 15 27 14
65 -1 81 -10 11 -10 13 0 7 14 -8 17 10 2 19 -5 3 -10 11 -10 16 0 6 5 7 10 4
6 -3 10 -2 10 4 0 5 -6 12 -12 14 -10 4 -10 6 0 6 6 1 12 7 12 15 0 17 22 26
60 26 63 0 60 -11 60 260 l0 247 -27 34 c-54 67 -89 101 -135 136 -27 19 -48
41 -48 48 0 21 56 35 136 35 l74 0 0 46 0 46 -37 -2 c-93 -4 -142 1 -157 16
-13 13 -16 42 -16 158 0 78 4 146 8 152 16 17 52 130 58 180 10 76 24 92 86
96 l53 3 3 41 3 40 -62 2 c-66 1 -72 3 -74 30 -5 52 -51 198 -86 270 l-40 82
-72 0 c-40 0 -78 -5 -84 -11 -8 -8 -13 -8 -17 0 -11 18 -66 14 -66 -5 0 -9
-10 -24 -22 -34 -13 -10 -19 -22 -15 -27 5 -4 19 4 32 19 16 19 26 24 31 16 4
-6 -1 -17 -10 -24 -13 -9 -14 -13 -4 -16 9 -3 8 -10 -6 -23 -14 -14 -15 -20
-6 -23 7 -3 21 6 31 19 15 20 20 22 31 10 9 -10 10 -15 1 -18 -6 -2 -25 -18
-43 -34 -41 -39 -83 -37 -124 6 -39 41 -60 74 -52 82 3 3 6 2 6 -4 0 -6 6 -13
13 -16 8 -3 12 4 11 22 -1 25 23 54 38 45 5 -3 8 -36 8 -75 0 -39 4 -69 10
-69 6 0 10 22 10 49 0 31 6 55 15 65 8 8 15 22 15 31 0 23 -69 17 -97 -8 -13
-11 -26 -17 -30 -14 -3 4 2 13 12 21 17 12 -19 14 -262 15 -221 2 -282 -1
-286 -11 -4 -10 -6 -10 -6 0 -1 6 -8 12 -17 12 -11 0 -15 -6 -11 -20 3 -11 2
-20 -3 -20 -4 0 -10 9 -13 20 -3 11 -13 20 -22 20 -14 0 -15 -3 -5 -15 6 -8 9
-19 5 -25 -4 -7 -14 -1 -27 15 -21 27 -53 33 -61 13 -4 -10 -6 -10 -6 0 -1 9
-37 12 -145 12 l-144 0 -26 -44z m991 -4 c-14 -17 -22 0 -12 26 5 14 7 14 15
2 5 -9 4 -20 -3 -28z m239 2 c2 -12 -1 -13 -12 -3 -7 6 -11 16 -8 21 7 11 17
3 20 -18z m51 4 c-3 -8 -6 -5 -6 6 -1 11 2 17 5 13 3 -3 4 -12 1 -19z m-1073
-8 c4 -4 10 -44 13 -89 l5 -81 -41 18 c-51 21 -52 29 -3 25 34 -3 32 0 -8 14
-12 4 -12 7 4 18 18 14 18 15 -8 24 -31 12 -35 31 -6 31 11 0 20 7 20 15 0 8
-3 14 -7 14 -22 -4 -33 3 -33 17 0 13 6 15 28 9 15 -3 31 -10 36 -15z m618
-30 c50 -16 148 -73 148 -85 0 -3 -12 0 -27 6 l-27 10 19 -22 c11 -12 14 -19
6 -14 -11 6 -13 4 -8 -8 3 -10 2 -17 -4 -17 -5 0 -9 -8 -7 -17 2 -10 -2 -17
-8 -16 -6 1 -9 -10 -6 -28 4 -30 -14 -41 -24 -14 -6 16 -24 11 -24 -6 0 -6 4
-8 9 -4 6 3 15 -5 22 -17 12 -22 11 -22 -6 -8 -17 14 -18 14 -6 -7 6 -13 9
-23 5 -23 -4 0 2 -10 14 -23 16 -16 21 -33 18 -55 -2 -19 1 -29 7 -25 5 3 7 0
5 -8 -3 -8 -1 -24 3 -36 5 -13 5 -23 -1 -23 -5 0 -8 -8 -7 -19 1 -21 -18 -89
-39 -138 -14 -34 -29 -42 -36 -21 -2 6 -3 -12 -2 -40 2 -29 -2 -52 -7 -52 -5
0 -9 -10 -9 -22 0 -19 -2 -20 -10 -8 -5 8 -10 11 -10 6 0 -5 -8 -2 -18 7 -10
10 -22 14 -25 10 -4 -3 -7 1 -7 9 0 9 -20 24 -47 36 -27 12 -43 21 -36 22 7 0
18 10 24 23 11 20 11 21 -4 9 -9 -8 -20 -11 -26 -8 -5 4 -17 -1 -25 -10 -11
-10 -25 -14 -40 -10 -23 6 -25 12 -31 93 -9 129 -13 132 -11 10 1 -77 6 -111
15 -116 11 -7 11 -10 -1 -17 -8 -5 -25 -24 -38 -42 l-24 -32 -12 27 c-6 16
-20 37 -30 48 -29 30 -65 111 -72 157 -5 39 -4 40 16 29 19 -10 21 -9 15 6 -6
15 -5 16 9 3 9 -8 14 -19 11 -23 -3 -5 4 -4 15 2 22 12 37 45 27 61 -15 24
-102 1 -89 -23 4 -7 2 -7 -7 1 -12 11 -11 15 5 28 11 8 38 15 60 16 23 1 50 2
61 3 11 1 27 -3 35 -9 11 -7 11 -5 -1 8 -22 23 -137 28 -162 7 -16 -12 -17 -4
-17 102 0 169 30 224 152 281 100 46 203 55 290 26z m178 10 c0 -5 -5 -10 -11
-10 -5 0 -7 5 -4 10 3 6 8 10 11 10 2 0 4 -4 4 -10z m278 -6 c-9 -9 -21 -13
-27 -9 -16 10 -3 25 22 25 20 0 20 -1 5 -16z m-999 -54 c31 -30 41 -48 20 -34
-6 3 -10 -1 -9 -12 5 -46 0 -64 -19 -64 -10 0 -24 7 -31 15 -7 8 -9 15 -4 15
10 0 10 77 0 87 -9 9 -7 23 3 23 4 0 22 -14 40 -30z m1011 10 c0 -5 -7 -10
-15 -10 -8 0 -15 -4 -15 -10 0 -5 -8 -10 -17 -10 -15 0 -13 4 7 20 28 22 40
25 40 10z m-1177 -33 c3 -8 -1 -14 -8 -14 -7 0 -11 6 -8 14 3 7 6 13 8 13 2 0
5 -6 8 -13z m61 -62 c19 -14 19 -15 -7 -15 -17 0 -27 5 -27 15 0 19 9 19 34 0z
m-64 -16 c13 -7 13 -8 0 -8 -8 0 -26 6 -40 15 l-25 15 25 -7 c14 -3 32 -10 40
-15z m1160 -9 c-8 -5 -22 -10 -30 -10 -13 0 -13 1 0 10 8 5 22 10 30 10 13 0
13 -1 0 -10z m90 -1 c0 -11 -45 -40 -56 -38 -5 1 -20 -3 -34 -9 -24 -10 -24
-11 -3 -11 16 -1 21 -5 16 -17 -4 -11 -17 -15 -49 -13 -24 2 -46 0 -50 -4 -9
-9 -34 12 -34 28 0 13 79 41 130 47 14 2 24 8 23 13 -1 6 12 10 28 11 16 1 29
-3 29 -7z m-1143 -21 c-3 -8 -6 -5 -6 6 -1 11 2 17 5 13 3 -3 4 -12 1 -19z
m-97 -8 c0 -5 -4 -10 -10 -10 -5 0 -10 5 -10 10 0 6 5 10 10 10 6 0 10 -4 10
-10z m154 1 c11 -4 15 -10 9 -14 -5 -3 -19 0 -29 8 -20 15 -11 18 20 6z m-114
-11 c0 -5 -4 -10 -10 -10 -5 0 -10 5 -10 10 0 6 5 10 10 10 6 0 10 -4 10 -10z
m1174 -25 c-4 -8 -10 -15 -15 -15 -5 0 -9 7 -9 15 0 8 7 15 15 15 9 0 12 -6 9
-15z m-1214 -5 c0 -13 -11 -13 -30 0 -12 8 -11 10 8 10 12 0 22 -4 22 -10z
m50 -5 c0 -8 -4 -15 -10 -15 -5 0 -7 7 -4 15 4 8 8 15 10 15 2 0 4 -7 4 -15z
m1188 -39 c-10 -7 -18 -20 -18 -27 0 -8 -9 -15 -20 -15 -11 0 -20 4 -20 8 0 4
7 8 15 8 8 0 15 4 15 9 0 5 -11 9 -25 9 -14 0 -28 -4 -31 -9 -3 -5 -2 -9 3 -9
11 0 10 -63 -1 -71 -5 -4 15 -10 43 -14 28 -4 51 -10 51 -15 0 -4 -21 -4 -46
1 -25 5 -51 6 -56 3 -12 -8 27 -36 44 -32 28 5 64 -12 65 -31 1 -12 -2 -23 -8
-26 -5 -4 -9 5 -9 19 0 23 -4 25 -35 24 -23 -1 -35 -6 -35 -15 0 -8 4 -12 9
-9 4 3 17 -4 27 -16 19 -21 19 -21 -3 -9 -27 14 -43 14 -43 0 0 -6 14 -16 30
-22 17 -6 30 -15 30 -19 0 -10 -7 -10 -44 2 -17 5 -43 12 -58 15 -26 5 -38 28
-20 38 4 2 2 2 -5 1 -13 -3 -33 119 -21 124 5 2 8 12 8 22 0 10 4 21 10 25 5
3 7 12 4 20 -5 11 7 15 53 18 32 2 69 4 83 5 23 1 23 0 8 -12z m-1240 -3 c-10
-2 -28 -2 -40 0 -13 2 -5 4 17 4 22 1 32 -1 23 -4z m95 -10 c-7 -2 -21 -2 -30
0 -10 3 -4 5 12 5 17 0 24 -2 18 -5z m977 -8 c0 -8 -4 -15 -10 -15 -5 0 -10 7
-10 15 0 8 5 15 10 15 6 0 10 -7 10 -15z m-1093 -11 c-3 -3 -12 -4 -19 -1 -8
3 -5 6 6 6 11 1 17 -2 13 -5z m123 -6 c0 -5 -16 -8 -35 -8 -19 0 -35 4 -35 8
0 5 16 8 35 8 19 -1 35 -4 35 -8z m0 -33 c0 -11 -11 -15 -40 -15 -48 0 -54 15
-8 18 18 2 34 5 37 7 8 8 11 5 11 -10z m1109 -1 c6 4 11 3 11 -2 0 -8 -22 -22
-36 -22 -2 0 -4 10 -4 23 0 16 3 18 9 8 5 -7 14 -10 20 -7z m-1249 -4 c0 -5
-4 -10 -10 -10 -5 0 -10 5 -10 10 0 6 5 10 10 10 6 0 10 -4 10 -10z m50 0 c0
-5 -9 -10 -20 -10 -11 0 -20 5 -20 10 0 6 9 10 20 10 11 0 20 -4 20 -10z m85
-40 c0 -8 4 -18 9 -21 13 -10 -51 -22 -66 -12 -9 5 -3 10 17 14 l30 7 -32 1
c-35 1 -45 16 -15 24 30 9 57 2 57 -13z m819 4 c10 -27 5 -96 -12 -169 -14
-56 -21 -71 -38 -73 -19 -3 -20 -7 -14 -55 4 -29 11 -106 15 -172 5 -85 13
-131 26 -159 23 -47 24 -111 4 -159 -13 -32 -18 -35 -67 -41 -29 -3 -71 -8
-93 -11 -36 -6 -38 -5 -22 9 10 8 23 29 27 48 33 126 53 195 62 206 6 7 8 29
5 50 -4 22 -3 32 2 23 14 -22 23 74 20 211 -2 68 -1 128 3 134 4 5 7 28 6 50
0 82 55 162 76 108z m-904 2 c0 -9 -30 -14 -35 -6 -4 6 3 10 14 10 12 0 21 -2
21 -4z m1057 -98 c-3 -7 -5 -2 -5 12 0 14 2 19 5 13 2 -7 2 -19 0 -25z m-971
-100 c-1 -30 -7 -44 -26 -58 -40 -31 -48 -22 -10 10 31 26 32 29 14 30 -30 0
-52 27 -30 36 9 3 14 9 12 13 -2 3 6 7 18 7 20 1 22 -3 22 -38z m46 -10 c-7
-7 -12 -8 -12 -2 0 14 12 26 19 19 2 -3 -1 -11 -7 -17z m-135 -8 c1 -12 -4
-20 -13 -20 -12 0 -12 4 -4 20 6 11 12 20 13 20 2 0 3 -9 4 -20z m1053 -20
c12 0 11 -108 -1 -116 -12 -7 -69 15 -69 26 0 5 6 11 13 13 9 4 9 7 -1 15 -11
7 -10 12 3 26 9 9 24 16 33 16 15 1 14 3 -3 17 -18 14 -18 15 -2 9 10 -3 22
-6 27 -6z m109 -53 c0 -18 -3 -26 -6 -19 -4 10 -9 10 -23 -3 -16 -14 -19 -14
-34 9 -19 30 -20 38 -5 53 8 8 20 8 40 1 24 -8 29 -15 28 -41z m26 3 c3 -5 1
-10 -4 -10 -6 0 -11 5 -11 10 0 6 2 10 4 10 3 0 8 -4 11 -10z m-672 -40 c8 0
8 -3 0 -11 -17 -17 -32 -2 -25 24 5 18 7 19 10 5 2 -10 9 -18 15 -18z m626
-16 c2 -2 2 -6 -1 -9 -9 -9 -58 6 -58 17 0 9 49 3 59 -8z m-530 -43 c8 -14 7
-22 -4 -31 -11 -9 -15 -10 -15 -1 0 7 -5 9 -10 6 -6 -3 -28 -7 -50 -7 -22 0
-40 -4 -40 -9 0 -5 -7 -6 -16 -2 -14 5 -14 3 -3 -14 10 -17 9 -24 -5 -44 l-17
-24 7 28 c4 17 2 27 -5 27 -6 0 -11 17 -11 39 0 46 5 48 97 50 52 1 64 -2 72
-18z m354 5 c6 -16 -2 -28 -14 -20 -12 7 -11 34 0 34 5 0 11 -6 14 -14z m63
-11 c16 -14 25 -25 20 -25 -4 0 -21 11 -38 25 -16 14 -25 25 -20 25 5 0 22
-11 38 -25z m-922 -223 l49 -42 -59 -27 c-32 -15 -63 -28 -67 -28 -4 0 -11 -4
-15 -10 -10 -15 -82 -46 -91 -40 -5 2 -9 80 -10 172 l-2 168 73 -75 c40 -42
95 -95 122 -118z m862 177 c3 -6 1 -14 -5 -18 -7 -5 -9 -15 -5 -26 5 -12 4
-16 -3 -12 -12 7 -23 54 -15 62 9 8 20 6 28 -6z m34 -18 c0 -10 7 -24 15 -31
21 -18 19 -29 -5 -23 -11 3 -17 9 -14 14 3 5 0 9 -5 9 -6 0 -11 11 -11 25 0
14 5 25 10 25 6 0 10 -8 10 -19z m50 4 c7 -8 8 -15 2 -15 -5 0 -15 7 -22 15
-7 8 -8 15 -2 15 5 0 15 -7 22 -15z m-775 -107 c-11 -20 -25 -24 -25 -8 0 6 5
10 11 10 5 0 9 12 8 28 -4 48 4 68 10 27 4 -22 2 -48 -4 -57z m960 63 c5 -18
-3 -152 -10 -159 -5 -5 -69 26 -93 45 l-23 18 53 57 c29 31 56 57 60 57 4 1 9
-8 13 -18z m-743 -45 c3 -14 1 -31 -3 -38 -6 -8 -9 1 -9 25 0 42 6 48 12 13z
m-25 -63 c-3 -10 -5 -2 -5 17 0 19 2 27 5 18 2 -10 2 -26 0 -35z m99 -48 c4
-34 3 -55 -5 -59 -7 -5 -11 3 -11 21 0 15 -2 53 -5 83 -7 72 12 32 21 -45z
m-299 59 c-3 -3 -12 -4 -19 -1 -8 3 -5 6 6 6 11 1 17 -2 13 -5z m263 -26 c0
-21 -3 -29 -10 -22 -5 5 -7 19 -4 32 9 31 14 27 14 -10z m-35 -33 c4 -28 8
-59 11 -70 4 -16 3 -17 -5 -5 -10 16 -27 138 -18 130 3 -3 9 -28 12 -55z m513
15 c4 -11 4 -77 -1 -147 -6 -95 -13 -138 -28 -166 -11 -21 -15 -36 -9 -32 12
8 1 -85 -13 -102 -11 -15 -47 -17 -47 -3 0 6 -6 10 -14 10 -8 0 -17 6 -19 13
-3 6 -6 2 -6 -10 -1 -20 -50 -77 -59 -69 -8 9 42 108 60 117 11 6 17 16 14 24
-2 7 -2 16 2 19 3 4 7 14 8 22 5 36 60 144 73 144 10 0 12 10 8 43 -2 23 -3
36 0 30 3 -7 9 -13 14 -13 12 0 12 27 -1 32 -6 2 -12 27 -14 56 -3 40 0 52 11
52 7 0 17 -9 21 -20z m-481 -52 c-3 -7 -5 -2 -5 12 0 14 2 19 5 13 2 -7 2 -19
0 -25z m-51 -22 c0 -14 -5 -21 -9 -17 -4 4 -5 15 -1 24 9 24 12 21 10 -7z
m-206 -51 c-4 -16 -15 -55 -25 -85 -14 -45 -21 -55 -41 -56 -22 -2 -23 -1 -9
19 8 12 15 31 15 43 0 12 7 39 16 60 9 22 21 50 26 64 10 23 11 24 18 5 4 -11
4 -33 0 -50z m100 43 c1 -13 9 -47 19 -75 l18 -53 -31 0 c-42 0 -61 13 -52 36
4 11 9 32 12 48 5 42 14 66 25 66 5 0 9 -10 9 -22z m731 2 c31 9 59 4 59 -10
0 -4 8 -10 19 -13 16 -4 17 -10 11 -53 -8 -48 -47 -164 -59 -174 -3 -3 -7 -13
-9 -24 -7 -38 -98 -160 -112 -151 -4 3 -11 -7 -14 -20 -4 -15 -11 -23 -17 -19
-12 7 -5 98 11 149 l10 30 -3 -32 c-2 -18 -1 -33 2 -33 15 1 41 29 41 44 0 9
6 25 12 36 10 16 10 23 -4 36 -13 13 -14 22 -6 44 5 16 16 31 23 34 11 4 12
13 5 37 -5 18 -7 35 -5 38 3 2 5 -2 6 -10 1 -8 4 -3 8 11 5 15 3 35 -6 52 -7
15 -13 31 -12 35 0 4 3 3 5 -4 4 -8 14 -9 35 -3z m-1287 -88 c-6 -4 -14 -16
-17 -26 -4 -10 -10 -16 -13 -13 -9 8 15 47 29 47 8 0 9 -3 1 -8z m406 -121 c0
-10 -24 -21 -43 -21 -7 0 -3 7 7 15 22 17 36 19 36 6z m86 -73 c-3 -40 -9
-126 -13 -190 l-6 -118 -45 0 c-41 0 -44 2 -39 23 4 20 53 213 79 315 17 69
32 51 24 -30z m443 5 c2 -72 -7 -113 -23 -113 -14 0 -26 51 -26 113 0 30 5 40
23 47 12 5 23 9 23 9 1 1 2 -25 3 -56z m-87 15 c0 -13 2 -43 3 -68 2 -25 4
-76 6 -115 3 -60 1 -75 -19 -107 l-24 -38 -80 0 -80 0 7 168 c4 92 9 169 12
172 2 3 10 -3 17 -13 7 -9 19 -17 27 -17 11 0 11 2 -1 10 -12 8 -11 10 7 10
12 0 30 -11 41 -25 l20 -25 5 29 c5 26 17 35 50 40 4 0 8 -9 9 -21z m-329 -85
c-4 -156 -6 -184 -13 -188 -4 -2 -5 42 -3 98 2 56 4 121 5 144 1 23 4 40 8 38
3 -2 5 -43 3 -92z m106 75 c2 -13 3 -39 3 -58 -1 -19 -2 -86 -3 -147 -1 -97
-3 -113 -18 -113 -14 0 -15 15 -10 142 4 79 7 155 8 171 1 33 15 36 20 5z
m-489 -18 c0 -5 -5 -10 -11 -10 -5 0 -7 5 -4 10 3 6 8 10 11 10 2 0 4 -4 4
-10z m1377 4 c-3 -3 -12 -4 -19 -1 -8 3 -5 6 6 6 11 1 17 -2 13 -5z m-1137
-23 c0 -12 -39 -25 -48 -16 -7 7 17 25 36 25 6 0 12 -4 12 -9z m1133 -46 c-3
-9 -8 -14 -10 -11 -3 3 -2 9 2 15 9 16 15 13 8 -4z m-1313 -15 c0 -5 -4 -10
-10 -10 -5 0 -10 5 -10 10 0 6 5 10 10 10 6 0 10 -4 10 -10z m1386 1 c-4 -5
-1 -11 5 -13 9 -3 8 -14 -2 -43 -19 -57 -33 -68 -24 -20 4 22 9 49 10 60 3 24
3 25 11 25 3 0 3 -4 0 -9z m-1230 -37 c-3 -9 -6 -18 -6 -20 0 -2 -11 -4 -25
-4 -31 0 -32 13 -2 28 31 15 40 14 33 -4z m792 -46 c-6 -57 -36 -93 -69 -83
-9 3 -20 1 -24 -5 -3 -5 -15 -10 -25 -10 -10 0 -20 -8 -22 -17 -2 -11 -6 -14
-10 -7 -7 11 24 77 47 101 11 11 14 10 18 -5 3 -10 5 -5 6 12 1 36 28 65 60
65 22 1 23 -1 19 -51z m345 -21 c-3 -12 -10 -27 -15 -34 -5 -7 -7 -16 -5 -21
3 -4 2 -14 -4 -22 -6 -11 -9 -2 -9 28 0 23 5 42 10 42 6 0 10 9 10 21 0 11 4
18 9 15 5 -3 7 -16 4 -29z m-158 -5 c-3 -3 -11 0 -18 7 -9 10 -8 11 6 5 10 -3
15 -9 12 -12z m50 8 c3 -5 2 -10 -4 -10 -5 0 -13 5 -16 10 -3 6 -2 10 4 10 5
0 13 -4 16 -10z m-1195 -20 c0 -5 -5 -10 -11 -10 -5 0 -7 5 -4 10 3 6 8 10 11
10 2 0 4 -4 4 -10z m1240 -10 c0 -5 -2 -10 -4 -10 -3 0 -8 5 -11 10 -3 6 -1
10 4 10 6 0 11 -4 11 -10z m-1134 -15 c-11 -8 -25 -15 -30 -15 -6 0 -2 7 8 15
11 8 25 15 30 15 6 0 2 -7 -8 -15z m1002 -14 c-7 -11 -16 -17 -21 -14 -4 3 0
11 10 19 24 18 25 17 11 -5z m132 -11 c0 -6 -5 -10 -11 -10 -5 0 -7 5 -3 12 5
7 0 9 -14 6 -15 -4 -19 -2 -15 8 4 10 10 11 24 3 10 -5 19 -14 19 -19z m-1115
-7 c-1 -16 -3 -31 -3 -35 -3 -12 -72 -9 -72 2 0 5 15 17 33 25 25 12 27 14 7
10 -22 -4 -22 -3 5 10 17 8 30 14 31 15 1 0 0 -12 -1 -27z m1025 -4 c0 -5 -4
-9 -10 -9 -5 0 -10 7 -10 16 0 8 5 12 10 9 6 -3 10 -10 10 -16z m-1070 -151
c0 -36 -22 -86 -44 -98 -12 -6 -13 -9 -4 -6 12 4 16 0 13 -16 -6 -27 -6 -27
-46 -33 l-34 -6 35 20 c19 11 31 20 25 21 -33 2 -36 16 -19 78 16 57 19 62 46
62 22 0 28 -5 28 -22z m361 -30 c0 -29 2 -72 5 -94 4 -34 0 -47 -20 -70 l-25
-29 3 115 c4 139 3 130 21 130 11 0 15 -13 16 -52z m119 43 c0 -5 -4 -11 -8
-13 -5 -1 -20 -29 -35 -60 -14 -32 -31 -58 -36 -58 -7 0 -11 28 -11 70 l0 70
45 0 c25 0 45 -4 45 -9z m98 -122 c-9 -26 -42 -61 -107 -118 -88 -75 -111 -91
-111 -75 0 4 15 25 33 48 19 23 67 90 108 151 l74 110 8 -40 c6 -27 4 -52 -5
-76z m-378 -98 l0 -177 -32 -31 c-18 -17 -43 -36 -55 -42 -21 -10 -23 -9 -22
11 1 13 -2 61 -6 108 -5 61 -4 81 4 70 6 -8 8 -24 5 -35 -5 -20 -5 -20 11 0 8
11 13 25 10 33 -3 8 0 10 7 6 8 -5 9 1 3 22 -7 25 -12 71 -14 112 -2 23 -20
12 -24 -15 -3 -23 -4 -21 -6 10 0 20 3 37 8 37 5 0 12 14 16 30 6 28 25 43 25
20 0 -5 5 -10 10 -10 6 0 10 7 10 16 0 8 4 13 9 9 5 -3 12 -1 16 5 18 30 25
-18 25 -179z m39 89 c0 -44 -4 -80 -8 -80 -4 0 -6 28 -5 63 2 34 3 70 3 80 1
9 3 17 6 17 2 0 4 -36 4 -80z m-183 -9 c-2 -34 -16 -55 -16 -23 0 20 9 52 15
52 1 0 2 -13 1 -29z m-126 5 c0 -2 -7 -7 -16 -10 -8 -3 -12 -2 -9 4 6 10 25
14 25 6z m130 -60 c0 -3 -4 -8 -10 -11 -5 -3 -10 -1 -10 4 0 6 5 11 10 11 6 0
10 -2 10 -4z m-5 -77 c1 -22 -3 -43 -8 -46 -6 -4 -8 5 -5 21 3 14 2 29 -2 31
-5 3 -6 14 -3 25 8 31 17 15 18 -31z m181 0 c1 -51 -10 -40 -12 12 -1 22 1 37
5 34 3 -4 6 -24 7 -46z m-316 31 c0 -14 -48 -35 -58 -26 -8 9 26 36 45 36 7 0
13 -5 13 -10z m-20 -90 c0 -5 -6 -10 -14 -10 -8 0 -16 -7 -20 -15 -7 -20 -26
-19 -26 0 0 9 10 20 23 25 30 12 37 12 37 0z m155 -9 c3 -5 1 -12 -5 -16 -5
-3 -10 1 -10 9 0 18 6 21 15 7z m695 -48 c0 -19 -13 -9 -16 12 -1 8 2 13 7 9
5 -3 9 -12 9 -21z m0 -42 c0 -11 -4 -23 -10 -26 -6 -4 -10 5 -10 19 0 14 5 26
10 26 6 0 10 -9 10 -19z m-332 -29 c-13 -16 -25 -24 -27 -19 -2 6 6 19 19 29
32 26 35 22 8 -10z"/>
<path d="M1115 1954 c-48 -15 -75 -36 -75 -58 0 -5 6 -3 13 6 28 38 198 65
234 38 17 -13 17 -13 2 4 -22 24 -111 30 -174 10z"/>
<path d="M1127 1912 c-16 -7 -27 -15 -24 -19 4 -3 2 -12 -4 -20 -7 -8 -8 -13
-1 -13 5 0 12 7 16 15 5 13 9 12 27 -6 l22 -22 22 25 c17 19 29 25 51 22 27
-4 27 -3 -6 11 l-35 14 50 -4 c43 -4 46 -3 20 5 -37 12 -98 9 -138 -8z"/>
<path d="M947 1866 c21 -28 24 -28 16 2 -3 12 -12 22 -20 22 -11 0 -10 -5 4
-24z"/>
<path d="M1320 1826 c0 -10 -5 -27 -12 -39 -15 -27 -19 -47 -9 -47 9 0 35 90
27 97 -3 4 -6 -1 -6 -11z"/>
<path d="M1670 1836 c0 -2 7 -6 15 -10 8 -3 15 -1 15 4 0 6 -7 10 -15 10 -8 0
-15 -2 -15 -4z"/>
<path d="M1431 1905 c-6 -16 -15 -37 -20 -46 -8 -14 -15 -86 -12 -114 1 -5 9
3 18 20 11 20 12 30 4 33 -17 6 -13 40 6 50 10 6 14 16 10 26 -4 10 -3 15 3
11 6 -3 10 -16 11 -28 0 -12 3 -17 5 -11 2 6 0 28 -4 50 l-9 39 -12 -30z"/>
<path d="M1442 1810 c0 -14 2 -19 5 -12 2 6 2 18 0 25 -3 6 -5 1 -5 -13z"/>
<path d="M1660 1671 c0 -8 41 -23 47 -17 2 1 -8 8 -22 14 -14 6 -25 8 -25 3z"/>
<path d="M1037 1548 c6 -11 55 -10 73 2 11 7 1 9 -31 7 -26 -1 -45 -5 -42 -9z"/>
<path d="M1621 914 c0 -11 3 -14 6 -6 3 7 2 16 -1 19 -3 4 -6 -2 -5 -13z"/>
<path d="M1063 884 c-3 -8 -1 -20 4 -25 11 -11 5 -61 -6 -55 -8 5 -7 -23 3
-79 10 -53 23 -85 36 -85 6 0 8 5 5 10 -4 6 -1 17 5 25 15 18 -1 20 -20 3 -12
-11 -12 -10 -1 5 9 11 21 15 32 12 11 -4 19 -2 19 3 0 5 -9 12 -21 15 -20 5
-20 6 -2 33 11 17 13 25 5 20 -12 -7 -12 -4 -2 14 6 12 17 19 24 17 9 -4 12 2
11 16 -1 12 -3 33 -4 47 -2 23 -3 24 -11 5 -7 -16 -9 -17 -9 -3 -1 9 7 22 17
27 13 8 7 10 -31 11 -34 0 -49 -4 -54 -16z m57 -18 c0 -10 -7 -12 -22 -8 -21
5 -21 6 -2 13 10 4 20 8 22 8 1 1 2 -5 2 -13z m-43 -118 c-3 -8 -6 -5 -6 6 -1
11 2 17 5 13 3 -3 4 -12 1 -19z"/>
<path d="M786 375 c-4 -22 -9 -48 -12 -57 -6 -22 13 -23 40 -3 15 12 17 17 7
29 -7 8 -16 27 -20 43 -8 28 -8 27 -15 -12z"/>
<path d="M750 94 c0 -14 4 -23 9 -20 5 3 7 15 4 26 -7 28 -13 25 -13 -6z"/>
<path d="M1541 395 c1 -30 6 -55 11 -55 5 0 8 25 6 55 -2 30 -7 55 -11 55 -4
0 -7 -25 -6 -55z"/>
<path d="M1581 430 c0 -8 18 -30 40 -49 31 -27 39 -30 39 -15 0 9 -3 15 -6 12
-3 -4 -21 10 -39 30 -20 22 -34 31 -34 22z"/>
<path d="M1652 415 c0 -16 2 -22 5 -12 2 9 2 23 0 30 -3 6 -5 -1 -5 -18z"/>
<path d="M1720 432 c0 -8 9 -25 20 -39 26 -33 26 -23 0 19 -11 18 -20 27 -20
20z"/>
<path d="M2091 414 c0 -11 3 -14 6 -6 3 7 2 16 -1 19 -3 4 -6 -2 -5 -13z"/>
<path d="M1780 394 c0 -16 5 -36 10 -44 6 -10 7 -2 3 25 -7 49 -13 58 -13 19z"/>
<path d="M2040 406 c0 -2 9 -23 20 -47 22 -50 27 -36 6 16 -13 30 -26 46 -26
31z"/>
<path d="M1823 365 c0 -22 2 -30 4 -17 2 12 2 30 0 40 -3 9 -5 -1 -4 -23z"/>
<path d="M1582 360 c0 -14 2 -19 5 -12 2 6 2 18 0 25 -3 6 -5 1 -5 -13z"/>
<path d="M2018 325 c-3 -14 -1 -25 3 -25 5 0 9 11 9 25 0 14 -2 25 -4 25 -2 0
-6 -11 -8 -25z"/>
<path d="M1539 253 c-1 -16 -3 -40 -5 -55 -1 -16 1 -28 7 -28 5 0 9 25 9 55 0
56 -9 78 -11 28z"/>
<path d="M1611 228 c1 -55 5 -50 11 15 2 20 0 37 -4 37 -4 0 -7 -24 -7 -52z"/>
<path d="M1578 260 c6 -8 12 -23 12 -35 0 -12 -6 -27 -12 -35 -11 -12 -10 -12
5 -1 9 7 17 24 17 36 0 12 -8 29 -17 36 -15 11 -16 11 -5 -1z"/>
<path d="M1640 246 c-9 -24 -3 -66 9 -66 3 0 6 20 6 45 0 25 -1 45 -3 45 -1 0
-7 -11 -12 -24z"/>
<path d="M1687 260 c6 -8 13 -26 16 -40 l4 -25 2 26 c0 15 -7 33 -16 40 -16
12 -17 12 -6 -1z"/>
<path d="M1761 218 c0 -32 2 -58 7 -58 4 0 6 19 4 43 -5 70 -10 76 -11 15z"/>
<path d="M2027 243 c-15 -14 -3 -103 14 -103 4 0 3 14 -3 30 -5 17 -8 42 -5
55 5 27 4 29 -6 18z"/>
<path d="M2074 203 c0 -29 4 -53 9 -53 9 0 7 34 -3 75 -6 24 -7 20 -6 -22z"/>
<path d="M1821 205 c0 -17 -7 -37 -13 -45 -11 -12 -10 -12 4 -2 11 9 18 10 23
2 3 -5 11 -10 17 -10 6 0 4 8 -5 18 -8 9 -17 28 -20 42 -4 22 -4 22 -6 -5z"/>
<path d="M1955 149 c-10 -15 3 -25 16 -12 7 7 7 13 1 17 -6 3 -14 1 -17 -5z"/>
<path d="M1959 118 c-7 -24 -5 -38 7 -38 8 0 14 5 14 10 0 6 -6 10 -12 10 -9
0 -8 4 2 10 10 6 11 10 3 10 -7 0 -13 -1 -14 -2z"/>
<path d="M1565 100 c-16 -7 -17 -9 -3 -9 9 -1 20 4 23 9 7 11 7 11 -20 0z"/>
<path d="M1603 50 c0 -30 2 -43 4 -28 2 16 2 40 0 55 -2 16 -4 3 -4 -27z"/>
<path d="M1670 48 c0 -28 2 -49 5 -46 9 8 11 98 3 98 -4 0 -8 -23 -8 -52z"/>
<path d="M1526 68 c-8 -28 7 -68 26 -68 7 0 7 4 0 13 -6 6 -12 28 -14 47 -4
34 -4 34 -12 8z"/>
<path d="M1813 40 c0 -25 2 -35 4 -22 2 12 2 32 0 45 -2 12 -4 2 -4 -23z"/>
<path d="M1751 40 c13 -16 24 -28 27 -26 5 6 -31 55 -41 56 -4 0 2 -13 14 -30z"/>
<path d="M1950 50 c0 -5 7 -7 15 -4 8 4 15 8 15 10 0 2 -7 4 -15 4 -8 0 -15
-4 -15 -10z"/>
<path d="M2036 33 c-4 -9 -2 -21 4 -27 7 -7 10 -2 10 17 0 31 -5 34 -14 10z"/>
<path d="M1955 20 c-3 -5 1 -10 9 -10 9 0 16 5 16 10 0 6 -4 10 -9 10 -6 0
-13 -4 -16 -10z"/>
</g>
</svg>
